<svg width="1024" height="1024" viewBox="0 0 1024 1024" version="1.1" xmlns="http://www.w3.org/2000/svg" xmlns:xlink="http://www.w3.org/1999/xlink">
<title>Desktop 4</title>
<desc>Created using Figma</desc>
<g id="Canvas" transform="translate(-3768 3294)">
<clipPath id="clip-0" clip-rule="evenodd">
<path d="M 3768 -3294L 4792 -3294L 4792 -2270L 3768 -2270L 3768 -3294Z" fill="#FFFFFF"/>
</clipPath>
<g id="Desktop 4" clip-path="url(#clip-0)">
<path d="M 3768 -3294L 4792 -3294L 4792 -2270L 3768 -2270L 3768 -3294Z" fill="#FFFFFF"/>
<g id="wordmark">
<g id="Vector">
<use xlink:href="#path0_fill" transform="translate(3901 -2624.64)" fill="#1E65F3"/>
</g>
<g id="Vector">
<use xlink:href="#path1_fill" transform="translate(4016.34 -2590.23)" fill="#1E65F3"/>
</g>
<g id="Vector">
<use xlink:href="#path2_fill" transform="translate(4107.25 -2627)" fill="#121112"/>
</g>
<g id="Vector">
<use xlink:href="#path3_fill" transform="translate(4224.29 -2590.25)" fill="#121112"/>
</g>
<g id="Vector">
<use xlink:href="#path4_fill" transform="translate(4322.33 -2592.59)" fill="#121112"/>
</g>
<g id="Vector">
<use xlink:href="#path5_fill" transform="translate(4423.35 -2624.68)" fill="#121112"/>
</g>
<g id="Vector">
<use xlink:href="#path6_fill" transform="translate(4512.54 -2592.61)" fill="#121112"/>
</g>
<g id="Vector">
<use xlink:href="#path7_fill" transform="translate(4610.36 -2592.59)" fill="#121112"/>
</g>
</g>
<g id="coinmark">
<g id="Vector">
<use xlink:href="#path8_fill" transform="translate(3964 -3136)" fill="#1E65F3"/>
</g>
</g>
</g>
</g>
<defs>
<path id="path0_fill" d="M -1.92724e-06 1.54153e-05L 18.5035 1.54153e-05L 71.4878 82.3147C 73.3346 85.2014 75.0212 88.1876 76.5399 91.2596L 76.5399 1.54153e-05L 94.0961 1.54153e-05L 94.0961 118.073L 75.5295 118.073L 22.7136 35.7588C 20.8667 32.872 19.1801 29.8859 17.6614 26.8138L 17.6614 118.073L -1.92724e-06 118.073L -1.92724e-06 1.54153e-05Z"/>
<path id="path1_fill" d="M 2.99147e-14 -3.85381e-06L 17.2194 -3.85381e-06L 17.2194 50.2601C 17.2194 63.2461 23.9556 70.1706 35.765 70.1706C 48.0795 70.1706 57.6997 59.6471 57.6997 45.2089L 57.6997 -3.85381e-06L 74.919 -3.85381e-06L 74.919 83.6617L 57.6997 83.6617L 57.6997 70.1495C 55.1099 75.0671 51.192 79.1593 46.3915 81.961C 41.591 84.7627 36.1005 86.1613 30.5444 85.9979C 14.167 85.9979 2.99147e-14 75.8743 2.99147e-14 53.7961L 2.99147e-14 -3.85381e-06Z"/>
<path id="path2_fill" d="M 110.158 91.7647C 97.8431 111.822 84.0129 122.788 58.5417 122.788C 24.966 122.788 5.1393e-06 97.5316 5.1393e-06 61.394C 5.1393e-06 25.2563 26.65 -6.42302e-06 59.3837 -6.42302e-06C 83.5077 -6.42302e-06 101.716 12.6282 109.905 30.5181L 95.4012 41.0416C 86.981 24.6881 75.319 16.585 59.1311 16.585C 36.8596 16.585 18.6298 35.5273 18.6298 61.4571C 18.6298 87.0923 35.6807 106.329 58.9627 106.329C 74.8138 106.329 87.2968 98.7313 96.2433 81.8727L 110.158 91.7647Z"/>
<path id="path3_fill" d="M 12.483 101.741C 14.8832 102.789 17.464 103.361 20.0823 103.425C 24.4608 103.425 27.1553 102.078 30.2076 94.4798L 34.0809 84.1879L -1.41331e-05 7.70763e-06L 19.7454 7.70763e-06L 43.3642 60.3838L 66.8145 7.70763e-06L 85.7601 7.70763e-06L 45.2798 100.541C 39.8909 114.201 31.9548 119.252 21.8295 119.252C 17.7105 119.251 13.6154 118.626 9.68327 117.4L 12.483 101.741Z"/>
<path id="path4_fill" d="M -3.08358e-05 2.35726L 17.1983 2.35726L 17.1983 15.1748C 22.4399 6.90339 33.9125 6.42302e-06 46.9007 6.42302e-06C 67.804 6.42302e-06 85.5285 16.5219 85.5285 44.1986C 85.5285 71.3492 67.804 88.3972 45.3851 88.3972C 33.3862 88.3972 22.5873 83.0092 17.1983 74.5694L 17.1983 120.452L -3.08358e-05 120.452L -3.08358e-05 2.35726ZM 16.0826 44.1986C 16.0826 61.0362 27.7236 72.5279 42.0591 72.5279C 56.3945 72.5279 68.0355 61.0572 68.0355 44.1986C 68.0355 27.34 56.3945 15.8484 42.0591 15.8484C 27.7236 15.8484 16.0826 27.319 16.0826 44.1986Z"/>
<path id="path5_fill" d="M 75.9084 118.116L 58.7101 118.116L 58.7101 66.8451C 58.7101 54.8694 51.6161 47.9029 40.1435 47.9029C 27.8289 47.9029 17.1983 58.0265 17.1983 73.8748L 17.1983 118.073L 1.28483e-05 118.073L 1.28483e-05 6.42302e-06L 17.1983 6.42302e-06L 17.1983 48.408C 20.2652 43.456 24.5349 39.3599 29.6103 36.5006C 34.6856 33.6414 40.4018 32.1119 46.2271 32.0545C 62.5834 32.0545 75.9084 42.3465 75.9084 61.5203L 75.9084 118.116Z"/>
<path id="path6_fill" d="M 17.1351 47.9239C 17.8088 62.762 27.7657 73.3908 42.6064 73.3908C 56.2682 73.3908 62.6887 65.9612 67.5724 56.006L 80.8974 63.9407C 73.1508 79.9574 60.9835 88.3973 42.1012 88.3973C 19.156 88.3973 2.56965e-06 70.36 2.56965e-06 44.1986C 2.56965e-06 18.0372 19.2402 -1.41307e-05 43.0274 -1.41307e-05C 67.3198 -1.41307e-05 83.5287 17.3638 83.5287 41.8203L 83.5287 47.9029L 17.1351 47.9239ZM 17.1351 34.7696L 67.0671 34.7696C 65.7199 21.1101 54.2473 13.8489 42.6064 13.8489C 30.0602 13.8489 20.3348 22.6255 17.1351 34.7696Z"/>
<path id="path7_fill" d="M 44.6904 17.1954C 42.5671 16.5189 40.3511 16.178 38.1226 16.1851C 25.9764 16.1851 17.1983 27.1506 17.1983 41.9887L 17.1983 86.019L 5.1393e-06 86.019L 5.1393e-06 2.35726L 17.1983 2.35726L 17.1983 16.5219C 21.7452 6.73501 29.8287 6.42302e-06 41.3223 6.42302e-06C 43.4534 0.0279467 45.5735 0.310566 47.6375 0.841872L 44.6904 17.1954Z"/>
<path id="path8_fill" d="M 442.752 0.195422L 394.487 23.0953C 394.242 23.2111 394.022 23.3741 393.839 23.5751C 393.657 23.7762 393.516 24.0112 393.424 24.2668C 393.333 24.5223 393.293 24.7935 393.306 25.0646C 393.32 25.3357 393.387 25.6014 393.503 25.8467L 466.908 180.584C 494.183 238.148 486.878 281.814 445.408 301.547C 411.848 317.474 382.878 306.362 360.275 267.559L 273.363 84.3358C 238.119 10.0622 190.115 -9.62392 133.17 17.3911C 96.1237 34.9663 74.6358 66.3811 75.0627 106.251C 75.071 106.722 74.9178 107.182 74.6285 107.554C 74.3393 107.926 73.9315 108.188 73.4729 108.296C 73.0143 108.404 72.5326 108.352 72.1077 108.148C 71.6829 107.945 71.3405 107.602 71.1375 107.176L 52.1637 67.1993C 52.0481 66.9538 51.885 66.7336 51.6837 66.5515C 51.4824 66.3694 51.247 66.2291 50.9911 66.1387C 50.7352 66.0482 50.4639 66.0095 50.193 66.0246C 49.922 66.0397 49.6567 66.1085 49.4125 66.2269L 1.15964 89.0557C 0.675792 89.2893 0.302886 89.7033 0.121057 90.2089C -0.0607726 90.7145 -0.0370132 91.2713 0.187229 91.7596L 133.478 372.82C 133.715 373.314 134.136 373.694 134.651 373.879C 135.167 374.063 135.734 374.036 136.23 373.805L 184.494 350.905C 184.74 350.789 184.96 350.626 185.143 350.425C 185.325 350.224 185.466 349.989 185.557 349.733C 185.649 349.478 185.689 349.207 185.675 348.935C 185.662 348.664 185.595 348.399 185.479 348.153L 114.125 197.744C 85.0596 136.456 90.5739 92.139 135.139 70.9943C 169.339 54.771 195.926 65.6814 219.798 107.248C 219.83 107.296 219.858 107.348 219.881 107.402L 305.939 288.846C 339.143 358.815 390.716 382.841 445.183 357C 487.281 337.03 504.737 306.967 503.717 267.428C 503.706 266.956 503.857 266.495 504.146 266.12C 504.434 265.746 504.842 265.483 505.301 265.373C 505.761 265.263 506.244 265.314 506.67 265.518C 507.096 265.722 507.439 266.065 507.643 266.492L 526.806 306.896C 526.922 307.141 527.085 307.361 527.286 307.544C 527.487 307.726 527.722 307.867 527.978 307.959C 528.233 308.05 528.504 308.09 528.775 308.077C 529.046 308.063 529.312 307.996 529.557 307.88L 577.822 284.98C 578.068 284.864 578.288 284.701 578.47 284.5C 578.652 284.299 578.792 284.063 578.883 283.807C 578.973 283.551 579.012 283.28 578.997 283.009C 578.982 282.738 578.913 282.473 578.794 282.229L 445.503 1.17973C 445.267 0.68605 444.845 0.30563 444.33 0.121285C 443.815 -0.0630614 443.248 -0.0364129 442.752 0.195422Z"/>
</defs>
</svg>
